<?xml version="1.0" encoding="utf-8"?>
<!-- Generator: Adobe Illustrator 16.0.0, SVG Export Plug-In . SVG Version: 6.00 Build 0)  -->
<!DOCTYPE svg PUBLIC "-//W3C//DTD SVG 1.1//EN" "http://www.w3.org/Graphics/SVG/1.1/DTD/svg11.dtd">
<svg version="1.1" id="Layer_1" xmlns="http://www.w3.org/2000/svg" xmlns:xlink="http://www.w3.org/1999/xlink" x="0px" y="0px"
	 width="400px" height="400px" viewBox="0 0 400 400" enable-background="new 0 0 400 400" xml:space="preserve">
<path fill="#FFFFFF" d="M0,0v400h400V0H0z M333.61,298.397c-5.569,7.965-31.245,39.479-42.121,39.139
	c-10.903-0.352-56.208-1.344-141.644-86.807C64.428,165.3,63.412,119.978,63.066,109.085s31.162-36.58,39.134-42.143
	c7.978-5.57,16.122-3.479,18.953,0.439c3.222,4.461,34.958,52.574,38.454,58.092c2.391,3.764,1.51,10.047-1.679,16.09
	c-3.172,6.053-16.405,29.166-16.405,29.166s9.326,15.908,40.872,47.443c31.552,31.547,47.45,40.891,47.45,40.891
	s23.112-13.234,29.166-16.412c6.031-3.189,12.287-3.996,16.077-1.678c5.753,3.518,54.017,35.627,58.087,38.469
	C337.234,282.286,339.195,290.425,333.61,298.397z"/>
</svg>
